HIERARCHY
ROOT Hips
{
	OFFSET 0.00000 0.00000 0.00000
	CHANNELS 6 Xposition Yposition Zposition Zrotation Yrotation Xrotation 
	JOINT LHipJoint
	{
		OFFSET 0 0 0
		CHANNELS 3 Zrotation Yrotation Xrotation
		JOINT LeftUpLeg
		{
			OFFSET 1.57358 -1.76629 0.73362
			CHANNELS 3 Zrotation Yrotation Xrotation
			JOINT LeftLeg
			{
				OFFSET 2.40600 -6.61045 0.00000
				CHANNELS 3 Zrotation Yrotation Xrotation
				JOINT LeftFoot
				{
					OFFSET 2.66168 -7.31291 0.00000
					CHANNELS 3 Zrotation Yrotation Xrotation
					JOINT LeftToeBase
					{
						OFFSET 0.20870 -0.57341 2.12506
						CHANNELS 3 Zrotation Yrotation Xrotation
						End Site
						{
							OFFSET 0.00000 -0.00000 1.10557
						}
					}
				}
			}
		}
	}
	JOINT RHipJoint
	{
		OFFSET 0 0 0
		CHANNELS 3 Zrotation Yrotation Xrotation
		JOINT RightUpLeg
		{
			OFFSET -1.49299 -1.76629 0.73362
			CHANNELS 3 Zrotation Yrotation Xrotation
			JOINT RightLeg
			{
				OFFSET -2.43663 -6.69460 0.00000
				CHANNELS 3 Zrotation Yrotation Xrotation
				JOINT RightFoot
				{
					OFFSET -2.62959 -7.22474 0.00000
					CHANNELS 3 Zrotation Yrotation Xrotation
					JOINT RightToeBase
					{
						OFFSET -0.25784 -0.70841 2.21862
						CHANNELS 3 Zrotation Yrotation Xrotation
						End Site
						{
							OFFSET -0.00000 -0.00000 1.16452
						}
					}
				}
			}
		}
	}
	JOINT LowerBack
	{
		OFFSET 0 0 0
		CHANNELS 3 Zrotation Yrotation Xrotation
		JOINT Spine
		{
			OFFSET -0.00034 2.12399 -0.25450
			CHANNELS 3 Zrotation Yrotation Xrotation
			JOINT Spine1
			{
				OFFSET 0.05594 2.14379 -0.03318
				CHANNELS 3 Zrotation Yrotation Xrotation
				JOINT Neck
				{
					OFFSET 0 0 0
					CHANNELS 3 Zrotation Yrotation Xrotation
					JOINT Neck1
					{
						OFFSET -0.09835 1.62725 0.24211
						CHANNELS 3 Zrotation Yrotation Xrotation
						JOINT Head
						{
							OFFSET 0.10849 1.66041 -0.22648
							CHANNELS 3 Zrotation Yrotation Xrotation
							End Site
							{
								OFFSET 0.04385 1.68267 -0.10541
							}
						}
					}
				}
				JOINT LeftShoulder
				{
					OFFSET 0 0 0
					CHANNELS 3 Zrotation Yrotation Xrotation
					JOINT LeftArm
					{
						OFFSET 3.29108 0.79398 -0.68179
						CHANNELS 3 Zrotation Yrotation Xrotation
						JOINT LeftForeArm
						{
							OFFSET 5.15310 -0.00000 -0.00000
							CHANNELS 3 Zrotation Yrotation Xrotation
							JOINT LeftHand
							{
								OFFSET 3.75138 -0.00000 -0.00000
								CHANNELS 3 Zrotation Yrotation Xrotation
								JOINT LeftFingerBase
								{
									OFFSET 0 0 0
									CHANNELS 3 Zrotation Yrotation Xrotation
									JOINT LeftHandIndex1
									{
										OFFSET 0.52917 -0.00000 0.00000
										CHANNELS 3 Zrotation Yrotation Xrotation
										End Site
										{
											OFFSET 0.42663 -0.00000 0.00000
										}
									}
								}
								JOINT LThumb
								{
									OFFSET 0 0 0
									CHANNELS 3 Zrotation Yrotation Xrotation
									End Site
									{
										OFFSET 0.43315 -0.00000 0.43315
									}
								}
							}
						}
					}
				}
				JOINT RightShoulder
				{
					OFFSET 0 0 0
					CHANNELS 3 Zrotation Yrotation Xrotation
					JOINT RightArm
					{
						OFFSET -3.07414 1.06285 -0.44338
						CHANNELS 3 Zrotation Yrotation Xrotation
						JOINT RightForeArm
						{
							OFFSET -5.29613 -0.00000 0.00000
							CHANNELS 3 Zrotation Yrotation Xrotation
							JOINT RightHand
							{
								OFFSET -3.76144 -0.00000 -0.00000
								CHANNELS 3 Zrotation Yrotation Xrotation
								JOINT RightFingerBase
								{
									OFFSET 0 0 0
									CHANNELS 3 Zrotation Yrotation Xrotation
									JOINT RightHandIndex1
									{
										OFFSET -0.74732 -0.00000 0.00000
										CHANNELS 3 Zrotation Yrotation Xrotation
										End Site
										{
											OFFSET -0.60251 -0.00000 0.00000
										}
									}
								}
								JOINT RThumb
								{
									OFFSET 0 0 0
									CHANNELS 3 Zrotation Yrotation Xrotation
									End Site
									{
										OFFSET -0.61171 -0.00000 0.61171
									}
								}
							}
						}
					}
				}
			}
		}
	}
}
MOTION
Frames: 15
Frame Time: 0.0833333
0.00 0.00 0.00 0 0 0 0 0 0 -21 0 0 0 0 0 0 0 0 0 0 0 0 0 0 21 0 0 0 0 0 0 0 0 0 0 0 0 0 0 0 0 0 0 0 0 0 0 -16 0 0 21 0 0 11 0 0 0 -8 0 0 0 0 0 0 0 0 0 0 0 0 0 0 0 0 0 0 0 0 8 0 0 0 0 0 0 0 0 0 0 0 0 0 0 0 0 0
0.00 0.00 0.00 0.6562 -5.1117 4.0981 0.0000 0.0000 0.0000 -15.1632 -9.6234 -37.5833 13.0524 18.8010 69.2882 0.0018 -4.3099 -3.0879 0.6728 -5.2453 -14.6094 0.0000 0.0000 0.0000 26.6344 1.6225 1.1656 -3.6768 -11.7174 34.7395 -0.5251 -3.0351 -15.1321 -0.5416 4.7151 -13.0977 -2.1184 1.2076 10.1571 3.5563 1.6007 -1.5391 4.7089 0.9597 -7.5117 -13.2864 -3.5611 -12.5298 6.3516 -3.2853 13.0417 3.9021 -1.7542 6.3570 -0.0000 0.0000 0.0000 -93.0872 31.4671 29.0281 113.2096 -57.8634 -79.9559 -0.0000 0.0000 -21.3468 20.3431 8.1595 3.0123 -7.1250 0.0000 -0.0000 -5.6235 38.6171 0.8874 -0.0000 0.0000 0.0000 74.5643 -10.6352 46.6251 -140.9505 47.4966 -102.2647 0.0000 -0.0000 -2.0467 -22.4433 27.2034 -10.6931 7.1250 -0.0000 -0.0000 4.5818 -0.9819 4.5172
0.00 0.00 0.00 0.8523 -3.5083 4.2868 0.0000 0.0000 0.0000 -17.2675 -12.3590 -37.2278 8.2768 16.3191 53.5535 0.0645 -1.9762 -4.5204 1.5616 -7.8859 -22.3682 0.0000 0.0000 0.0000 24.8067 -1.5027 5.8432 -3.0217 -10.7301 31.3751 -0.0045 -1.4040 -2.4701 -0.4058 4.0898 -11.3294 0.2933 2.6054 8.0783 1.2862 3.5493 0.3219 0.7547 1.7635 -4.2560 -10.1884 -5.9075 -19.0613 6.5764 -6.4908 14.4106 3.0263 -3.0059 8.1471 -0.0000 -0.0000 0.0000 -87.6767 29.2716 33.6438 113.3526 -57.8356 -80.0770 -0.0000 0.0000 -20.8195 20.8676 8.5012 3.2255 -7.1250 0.0000 -0.0000 -5.2168 39.0181 0.7713 -0.0000 -0.0000 0.0000 79.5369 -7.3963 41.1727 -141.6049 47.0898 -102.7456 0.0000 -0.0000 -1.3205 -24.5966 29.9520 -12.8738 7.1250 -0.0000 -0.0000 3.7056 2.3239 3.8608
0.00 0.00 0.00 0.9503 -2.9620 4.0348 0.0000 0.0000 0.0000 -18.8171 -15.8411 -33.4277 3.7923 11.8787 35.3042 -0.0312 4.4833 1.7832 1.0924 -6.6420 -18.6591 0.0000 0.0000 0.0000 22.2802 -3.5914 10.9714 -2.2767 -9.4201 27.1184 -0.5241 -1.8697 13.1585 -0.0937 1.9744 -5.4349 -0.2790 3.1274 7.6769 1.7907 4.2351 -0.7501 1.5024 2.1264 -5.2404 -10.7990 -6.0343 -17.1103 6.2232 -6.6694 14.8669 3.0149 -3.2008 7.9908 -0.0000 -0.0000 0.0000 -88.9416 33.6070 33.7357 115.6707 -57.3574 -82.0342 -0.0000 0.0000 -19.7300 20.5449 8.0825 3.0163 -7.1250 0.0000 -0.0000 -5.4408 38.5501 0.8674 -0.0000 -0.0000 0.0000 78.2705 -10.1661 41.4123 -143.1342 46.0994 -103.8567 0.0000 -0.0000 -0.7421 -22.3212 29.6150 -11.4689 7.1250 -0.0000 -0.0000 4.9699 1.4842 5.1160
0.00 0.00 0.00 -1.0772 -3.9825 4.1390 0.0000 0.0000 0.0000 -18.4946 -16.0722 -32.2997 0.8492 5.8774 16.4293 0.6506 5.8473 14.3780 0.8199 -5.7775 -16.1401 0.0000 0.0000 0.0000 22.1025 -1.8225 16.0550 -2.5837 -9.9886 28.9397 -1.4476 -1.3422 22.3583 -0.0408 -1.3039 3.5853 1.3744 4.5694 5.9025 2.2031 6.2922 -0.9832 0.9030 3.1143 -4.4191 -10.3186 -6.8139 -17.6088 6.2816 -7.8420 15.3188 2.7874 -3.7137 8.3155 -0.0000 -0.0000 0.0000 -87.0199 36.0259 35.9812 120.0128 -56.3065 -85.6696 -0.0000 0.0000 -17.2582 21.1774 7.8242 3.0190 -7.1250 0.0000 -0.0000 -4.8679 38.3210 0.8029 -0.0000 -0.0000 0.0000 78.0759 -11.8008 42.4015 -145.2973 44.5987 -105.3958 0.0000 -0.0000 -0.7451 -22.4865 27.2005 -10.7144 7.1250 -0.0000 -0.0000 4.5558 -0.9764 4.4918
0.00 0.00 0.00 -3.1254 -3.0156 1.7616 0.0000 0.0000 0.0000 -23.2560 -8.8141 -33.1858 0.7003 5.3491 14.9071 1.1701 9.8402 19.5079 0.6750 -5.2535 -14.6330 0.0000 0.0000 0.0000 22.8986 -1.1585 16.0321 -5.6968 -14.1280 43.7526 -0.6160 0.5767 15.0476 -0.0067 -0.5302 1.4568 2.4343 4.4034 7.2364 3.4287 6.2210 -0.1020 1.5183 3.0683 -4.2785 -10.8567 -6.5066 -18.4369 6.9761 -7.3703 16.2512 3.1618 -3.4406 8.7850 0.0000 0.0000 0.0000 -86.5170 36.5710 36.3523 125.0236 -54.8155 -89.8033 -0.0000 0.0000 -16.2399 21.1717 7.2328 2.7917 -7.1250 0.0000 -0.0000 -4.8051 37.6907 0.8670 0.0000 0.0000 0.0000 77.4047 -9.8824 44.9301 -143.9853 45.5232 -104.4671 0.0000 -0.0000 -1.1312 -23.1255 29.1985 -11.7685 7.1250 -0.0000 -0.0000 4.4453 1.2227 4.5527
0.00 0.00 0.00 -4.1345 -3.1496 -2.0376 0.0000 0.0000 0.0000 -25.1181 -5.8774 -34.1193 2.6248 10.0614 29.1757 0.3266 -0.0478 10.8132 0.5141 4.5956 12.7586 0.0000 0.0000 0.0000 20.7350 -1.9925 13.4424 -10.2871 -17.5682 60.4436 -0.1297 -0.0778 6.7731 -0.0016 0.2555 -0.7021 1.7910 4.0801 10.2104 4.9265 5.9020 0.7089 3.2804 2.9304 -5.3230 -10.3717 -5.2722 -17.1334 5.7210 -5.6837 16.2616 2.9114 -2.7705 8.3447 0.0000 -0.0000 0.0000 -87.3581 36.5627 36.2245 128.4282 -53.6101 -92.5655 -0.0000 0.0000 -17.2314 21.4725 7.2789 2.8531 -7.1250 0.0000 -0.0000 -4.5544 37.7597 0.8138 0.0000 -0.0000 0.0000 77.1406 -8.4990 46.0319 -139.5953 48.3078 -101.2591 0.0000 -0.0000 -0.9281 -22.5255 29.5290 -11.5526 7.1250 -0.0000 -0.0000 4.8396 1.4382 4.9772
0.00 0.00 0.00 -0.2735 -2.2529 -3.6741 0.0000 0.0000 0.0000 -29.8049 -8.3881 -33.9903 5.8930 14.3238 44.5507 0.0685 0.7438 -5.2736 0.6572 5.1853 14.4377 0.0000 0.0000 0.0000 10.4339 -3.5568 2.2589 -16.1806 -19.6466 78.7693 0.0154 -2.3753 -1.8059 -0.0427 -1.3337 3.6676 -2.4205 3.6574 12.0195 4.0588 4.7777 1.4856 4.8339 2.4559 -5.7222 -9.1215 -4.1270 -18.9198 5.0425 -4.1616 17.6330 2.6686 -2.0299 8.9486 -0.0000 0.0000 0.0000 -86.8723 30.2948 36.7328 126.1456 -54.4365 -90.7182 -0.0000 0.0000 -22.8864 20.2950 8.1294 2.9935 -7.1250 0.0000 -0.0000 -5.6608 38.5817 0.8983 -0.0000 0.0000 0.0000 79.8859 -6.1862 45.3568 -130.0311 52.9830 -93.8507 0.0000 -0.0000 -0.2115 -22.3230 30.4448 -11.7529 7.1250 -0.0000 -0.0000 5.0849 2.3370 5.3087
0.00 0.00 0.00 3.3200 6.9545 -1.3294 0.0000 0.0000 0.0000 -35.9228 -8.0572 -28.1454 10.9938 17.9320 62.7614 0.5075 -8.3785 -13.1281 0.0000 -0.0378 -0.1039 0.0000 0.0000 0.0000 -1.7933 8.7274 -39.0765 -13.7287 -19.0297 71.3743 -0.7084 -3.1404 -17.3425 -0.1512 2.5057 -6.9056 -3.9384 0.7134 16.2949 4.5815 0.5923 2.9741 7.0550 0.4113 -6.0414 -6.5444 -1.1791 -19.2701 1.9286 -0.1473 15.4535 1.6909 -0.2666 7.9597 0.0000 0.0000 0.0000 -90.6280 13.6357 41.0112 127.9617 -53.7852 -92.1896 -0.0000 0.0000 -22.8620 18.7832 6.5804 2.2320 -7.1250 0.0000 -0.0000 -6.7454 36.8532 1.3594 0.0000 0.0000 0.0000 78.7111 -12.8111 45.0472 -130.1523 52.9339 -93.9475 0.0000 -0.0000 -5.9770 -21.6284 28.5571 -10.7326 7.1250 -0.0000 -0.0000 5.2337 0.2560 5.2790
0.00 0.00 0.00 0.9383 9.8649 -2.5986 0.0000 0.0000 0.0000 -32.3471 -5.8560 -27.0121 11.7655 18.2898 65.2437 -0.2054 -11.1405 -4.1976 0.0024 0.3182 0.8744 0.0000 0.0000 0.0000 -1.4704 13.4677 -33.9343 -8.8477 -16.7087 55.5618 -0.1839 -2.7173 -9.5735 -0.4188 4.1536 -11.5092 -1.9741 0.0108 17.7493 5.8422 0.0901 3.6767 7.4299 0.1280 -6.0002 -6.5202 -1.1933 -18.8691 1.6623 -0.1519 15.2787 1.5954 -0.2923 7.8336 -0.0000 0.0000 0.0000 -89.9051 14.1088 43.6801 128.2931 -53.6612 -92.4567 -0.0000 0.0000 -22.0487 18.5546 5.9505 1.9929 -7.1250 0.0000 -0.0000 -6.8589 36.1814 1.4958 -0.0000 0.0000 0.0000 77.9575 -14.3512 43.5046 -131.7919 52.2467 -95.2498 0.0000 -0.0000 -7.1875 -18.7369 29.5093 -9.4852 7.1250 -0.0000 -0.0000 7.0359 0.6799 7.1730
0.00 0.00 0.00 1.1358 13.4393 -1.9890 0.0000 0.0000 0.0000 -30.2883 -3.2239 -28.9670 12.7364 18.6849 68.3049 -0.6821 -14.5358 7.1693 0.0286 -1.0926 -3.0037 0.0000 0.0000 0.0000 -6.3669 19.0435 -27.5163 -4.0987 -12.2905 36.7677 0.0302 -3.4962 0.4873 -0.5805 4.8789 -13.5634 -2.4281 0.2279 16.8687 6.3417 0.3032 4.5744 8.1590 0.1863 -4.5933 -5.7459 -1.4104 -17.3901 0.8771 -0.6268 13.2870 1.1479 -0.5188 6.9409 -0.0000 0.0000 0.0000 -87.7762 12.9721 48.1211 125.9146 -54.5160 -90.5301 -0.0000 0.0000 -21.7987 17.9841 5.7717 1.8697 -7.1250 0.0000 -0.0000 -7.3120 35.9645 1.6348 -0.0000 0.0000 0.0000 78.7175 -16.8619 41.1063 -130.0145 52.9896 -93.8374 0.0000 0.0000 2.4057 -30.1179 21.3614 -11.9311 7.1250 -0.0000 -0.0000 -0.8885 -5.6515 -0.7968
0.00 0.00 0.00 -22.3828 50.6835 -17.2612 0.0000 0.0000 0.0000 -13.9196 0.4492 -61.8975 14.9356 19.3736 75.0428 0.3358 -4.1425 -10.3090 0.2161 -2.9925 -8.2578 0.0000 0.0000 0.0000 13.0876 -3.7941 -3.3625 -4.1402 -12.3447 36.9624 -1.7856 -3.3278 -26.6188 -2.3920 9.6388 -27.8148 5.6448 1.7029 18.4000 8.2785 4.2584 3.3294 4.7204 2.1474 -6.9713 -6.8134 -3.5403 -18.9553 4.5843 -3.8373 15.6689 2.1687 -1.7570 8.2008 0.0000 -0.0000 0.0000 -87.0307 11.8207 35.6052 118.5423 -56.6860 -84.4434 -0.0000 0.0000 -12.8467 19.1100 6.6664 2.3033 -7.1250 0.0000 -0.0000 -6.4816 36.9628 1.2882 0.0000 -0.0000 0.0000 75.1377 -18.2269 39.0301 -130.0986 52.9556 -93.9046 0.0000 -0.0000 -6.4128 -21.3902 26.9931 -10.0810 7.1250 -0.0000 -0.0000 5.1841 -1.4015 5.0767
0.00 0.00 0.00 -33.0727 58.1898 -24.7545 0.0000 0.0000 0.0000 -19.5336 -3.3841 -64.0909 11.3572 18.1055 63.9363 -0.0916 5.9452 -4.9105 0.1438 2.4441 6.7347 0.0000 0.0000 0.0000 19.8798 -13.0027 3.6251 -2.9626 -10.6343 31.0562 -1.5624 -6.8726 -26.9631 -3.1631 10.9545 -32.1265 5.1880 2.9935 18.8195 7.7307 5.9828 2.2941 3.9176 2.9604 -8.4003 -6.9242 -3.9445 -19.7758 6.9121 -4.7418 14.9747 2.8472 -1.9374 8.2296 0.0000 0.0000 0.0000 -92.1682 16.1647 34.7962 133.8052 -51.3405 -96.8320 -0.0000 0.0000 -15.6195 23.0249 6.2845 2.6636 -7.1250 0.0000 -0.0000 -3.1431 36.7876 0.6357 0.0000 0.0000 0.0000 68.2559 -7.8680 39.8437 -133.4671 51.4977 -96.5677 0.0000 -0.0000 -10.3901 -18.0326 27.7275 -8.6130 7.1250 -0.0000 -0.0000 7.2608 -1.2500 7.1588
0.00 0.00 0.00 -32.5239 60.1086 -19.4849 0.0000 0.0000 0.0000 -24.2244 -4.8174 -61.2669 10.6667 17.7681 61.6942 -0.0906 7.5099 -8.3719 0.7709 5.6063 15.6462 0.0000 0.0000 0.0000 18.6099 -13.2357 9.3598 -1.6670 -8.1350 23.1249 -0.3427 -1.7186 -11.8214 -3.6812 11.7236 -34.7611 3.5488 5.9760 16.1380 3.5938 8.9597 0.8313 -0.1795 4.2988 -8.1535 -6.3306 -4.6740 -21.7525 7.8848 -5.8987 13.4596 2.8964 -2.3180 8.1604 0.0000 0.0000 0.0000 -86.6113 18.7491 40.5246 136.8651 -49.8214 -99.1962 -0.0000 0.0000 -11.3830 18.5450 4.5179 1.5137 -7.1250 0.0000 -0.0000 -6.7034 34.6826 1.7076 0.0000 0.0000 0.0000 72.7776 -8.2331 39.2688 -140.9921 47.4710 -102.2954 0.0000 -0.0000 -12.3553 -22.1721 27.9590 -10.8168 7.1250 -0.0000 -0.0000 4.8377 -0.2532 4.8336
0.00 0.00 0.00 -35.6881 61.1347 -20.5135 0.0000 0.0000 0.0000 -21.5997 -6.7236 -58.4092 11.1677 18.0162 63.3251 0.1431 5.1314 -10.8294 0.5769 4.8638 13.5204 0.0000 0.0000 0.0000 19.8343 -10.7417 12.0595 -1.2060 -6.9672 19.6184 -0.0234 -1.2543 2.7277 -2.4839 9.8085 -28.3588 3.6896 6.6806 15.2546 2.4955 9.7820 0.1826 -1.5135 4.6550 -8.1279 -6.1490 -4.6384 -22.4120 7.8225 -5.8049 12.6990 2.8497 -2.2627 7.9999 0.0000 0.0000 0.0000 -86.1688 19.1955 41.7877 132.5491 -51.9142 -95.8472 -0.0000 0.0000 -10.8810 17.0437 5.6238 1.7208 -7.1250 0.0000 -0.0000 -8.0736 35.7623 1.8479 0.0000 0.0000 0.0000 74.1586 -8.7793 40.4680 -140.2460 47.9235 -101.7435 0.0000 -0.0000 -12.8980 -18.9974 29.3306 -9.5725 7.1250 -0.0000 -0.0000 6.8641 0.5463 6.9794
